<?xml version="1.0" encoding="utf-8" standalone="no"?>
<!DOCTYPE svg PUBLIC "-//W3C//DTD SVG 1.1//EN"
  "http://www.w3.org/Graphics/SVG/1.1/DTD/svg11.dtd">
<!-- Created with matplotlib (https://matplotlib.org/) -->
<svg height="720pt" version="1.1" viewBox="0 0 720 720" width="720pt" xmlns="http://www.w3.org/2000/svg" xmlns:xlink="http://www.w3.org/1999/xlink">
 <metadata>
  <rdf:RDF xmlns:cc="http://creativecommons.org/ns#" xmlns:dc="http://purl.org/dc/elements/1.1/" xmlns:rdf="http://www.w3.org/1999/02/22-rdf-syntax-ns#">
   <cc:Work>
    <dc:type rdf:resource="http://purl.org/dc/dcmitype/StillImage"/>
    <dc:date>2020-09-26T14:14:14.598523</dc:date>
    <dc:format>image/svg+xml</dc:format>
    <dc:creator>
     <cc:Agent>
      <dc:title>Matplotlib v3.3.2, https://matplotlib.org/</dc:title>
     </cc:Agent>
    </dc:creator>
   </cc:Work>
  </rdf:RDF>
 </metadata>
 <defs>
  <style type="text/css">*{stroke-linecap:butt;stroke-linejoin:round;}</style>
 </defs>
 <g id="figure_1">
  <g id="patch_1">
   <path d="M 0 720 
L 720 720 
L 720 0 
L 0 0 
z
" style="fill:#23272e;"/>
  </g>
  <g id="axes_1">
   <g id="line2d_1">
    <path clip-path="url(#p9a0c9ce158)" d="M -1 562.049975 
L 108.572072 561.940634 
L 128.121622 561.690507 
L 140.689189 561.314404 
L 150.463964 560.799821 
L 158.842342 560.116342 
L 165.824324 559.304864 
L 171.40991 558.447455 
L 176.995495 557.35793 
L 181.184685 556.357915 
L 185.373874 555.174133 
L 189.563063 553.779484 
L 193.752252 552.144261 
L 197.941441 550.236183 
L 202.130631 548.020482 
L 206.31982 545.460078 
L 209.112613 543.542384 
L 211.905405 541.442088 
L 214.698198 539.146868 
L 217.490991 536.644183 
L 220.283784 533.921354 
L 223.076577 530.965644 
L 225.869369 527.764357 
L 228.662162 524.304941 
L 231.454955 520.575104 
L 234.247748 516.562939 
L 237.040541 512.257052 
L 239.833333 507.646708 
L 242.626126 502.721973 
L 245.418919 497.47387 
L 248.211712 491.894535 
L 252.400901 482.890445 
L 256.59009 473.110582 
L 260.779279 462.54742 
L 264.968468 451.203111 
L 269.157658 439.090585 
L 273.346847 426.23455 
L 277.536036 412.67233 
L 281.725225 398.454522 
L 287.310811 378.590747 
L 292.896396 357.867988 
L 299.878378 331.116157 
L 316.635135 266.358326 
L 322.220721 245.791651 
L 326.40991 231.082914 
L 330.599099 217.163079 
L 334.788288 204.186211 
L 337.581081 196.132226 
L 340.373874 188.60501 
L 343.166667 181.64418 
L 345.959459 175.286883 
L 348.752252 169.567468 
L 351.545045 164.517173 
L 354.337838 160.163845 
L 357.130631 156.531683 
L 358.527027 154.992548 
L 359.923423 153.641014 
L 361.31982 152.478985 
L 362.716216 151.508102 
L 364.112613 150.729739 
L 365.509009 150.144998 
L 366.905405 149.754709 
L 368.301802 149.559426 
L 369.698198 149.559426 
L 371.094595 149.754709 
L 372.490991 150.144998 
L 373.887387 150.729739 
L 375.283784 151.508102 
L 376.68018 152.478985 
L 378.076577 153.641014 
L 379.472973 154.992548 
L 380.869369 156.531683 
L 382.265766 158.256255 
L 385.058559 162.251787 
L 387.851351 166.956857 
L 390.644144 172.345411 
L 393.436937 178.387874 
L 396.22973 185.051413 
L 399.022523 192.300242 
L 401.815315 200.095936 
L 404.608108 208.397771 
L 408.797297 221.705759 
L 412.986486 235.905901 
L 417.175676 250.842715 
L 422.761261 271.631529 
L 431.13964 303.933166 
L 443.707207 352.579529 
L 450.689189 378.590747 
L 456.274775 398.454522 
L 460.463964 412.67233 
L 464.653153 426.23455 
L 468.842342 439.090585 
L 473.031532 451.203111 
L 477.220721 462.54742 
L 481.40991 473.110582 
L 485.599099 482.890445 
L 489.788288 491.894535 
L 493.977477 500.138862 
L 496.77027 505.224224 
L 499.563063 509.990578 
L 502.355856 514.447399 
L 505.148649 518.605038 
L 507.941441 522.47458 
L 510.734234 526.067691 
L 513.527027 529.396487 
L 516.31982 532.473405 
L 519.112613 535.311083 
L 521.905405 537.922249 
L 524.698198 540.319623 
L 527.490991 542.515826 
L 531.68018 545.460078 
L 535.869369 548.020482 
L 540.058559 550.236183 
L 544.247748 552.144261 
L 548.436937 553.779484 
L 552.626126 555.174133 
L 556.815315 556.357915 
L 562.400901 557.654744 
L 567.986486 558.681733 
L 573.572072 559.48824 
L 580.554054 560.249778 
L 588.932432 560.889395 
L 598.707207 561.369368 
L 611.274775 561.718783 
L 628.031532 561.930565 
L 657.355856 562.032992 
L 721 562.049879 
L 721 562.049879 
" style="fill:none;stroke:#5e81ac;stroke-linecap:round;stroke-width:100;"/>
   </g>
   <g id="legend_1"/>
  </g>
 </g>
 <defs>
  <clipPath id="p9a0c9ce158">
   <rect height="543.6" width="558" x="90" y="86.4"/>
  </clipPath>
 </defs>
</svg>
